<?xml version="1.0" encoding="UTF-8"?>
<!DOCTYPE svg PUBLIC "-//W3C//DTD SVG 1.1//EN" "http://www.w3.org/Graphics/SVG/1.1/DTD/svg11.dtd">
<!-- Creator: CorelDRAW -->
<svg xmlns="http://www.w3.org/2000/svg" xml:space="preserve" width="16.9332mm" height="16.9332mm" style="shape-rendering:geometricPrecision; text-rendering:geometricPrecision; image-rendering:optimizeQuality; fill-rule:evenodd; clip-rule:evenodd"
viewBox="0 0 3.4763 3.4763"
 xmlns:xlink="http://www.w3.org/1999/xlink">
 <defs>
  <style type="text/css">
   <![CDATA[
    .fil0 {fill:#9D9E9E}
    .fil2 {fill:#B2B3B3}
    .fil1 {fill:#FEFEFE}
   ]]>
  </style>
 </defs>
 <g id="Слой_x0020_1">
  <metadata id="CorelCorpID_0Corel-Layer"/>
  <g id="_237266504">
   <path id="_237266480" class="fil0" d="M1.73815 0c0.95996,0 1.73815,0.778192 1.73815,1.73815 0,0.95996 -0.778192,1.73815 -1.73815,1.73815 -0.95996,0 -1.73815,-0.778192 -1.73815,-1.73815 0,-0.95996 0.778192,-1.73815 1.73815,-1.73815z"/>
   <path id="_483495336" class="fil1" d="M1.73815 0.164626c0.869035,0 1.57353,0.704491 1.57353,1.57353 0,0.869035 -0.704491,1.57353 -1.57353,1.57353 -0.869035,0 -1.57353,-0.704491 -1.57353,-1.57353 0,-0.869035 0.704491,-1.57353 1.57353,-1.57353zm0 0.219502c0.747808,0 1.35402,0.606216 1.35402,1.35402 0,0.747808 -0.606216,1.35402 -1.35402,1.35402 -0.747808,0 -1.35402,-0.606216 -1.35402,-1.35402 0,-0.747808 0.606216,-1.35402 1.35402,-1.35402z"/>
   <g>
    <path id="_483495864" class="fil1" d="M2.85867 2.5098c-0.226194,0.327877 -0.592544,0.551587 -1.01254,0.584599l1.01254 -0.584599z"/>
    <path id="_234709112" class="fil1" d="M3.09827 1.77018c-0.00203242,0.0869836 -0.0122767,0.171935 -0.029891,0.254155l-1.7476 1.00898c-0.0820565,-0.0264215 -0.160664,-0.0604594 -0.235063,-0.101211l2.01255 -1.16193z"/>
    <path id="_483495840" class="fil1" d="M3.00018 1.22931c0.0256208,0.0634362 0.0466225,0.129254 0.0625124,0.197022l-2.25652 1.3028c-0.0502357,-0.0472384 -0.0968583,-0.0982748 -0.139437,-0.152616l2.33345 -1.34721z"/>
    <path id="_483495672" class="fil1" d="M2.70676 0.782934c0.0517549,0.0524735 0.0992808,0.109114 0.142003,0.16941l-2.34667 1.35485c-0.0306711,-0.0664746 -0.0561277,-0.135864 -0.0758566,-0.207595l2.28052 -1.31666z"/>
    <path id="_483495648" class="fil1" d="M2.22099 0.465876c0.0765546,0.0290903 0.149824,0.0648733 0.21905,0.106651l-2.06215 1.19059c-0.000143707,-0.00831446 -0.000225825,-0.0166289 -0.000225825,-0.0249639 0,-0.0742553 0.00603568,-0.147094 0.0174912,-0.218106l1.82583 -1.05417z"/>
    <path id="_237267056" class="fil1" d="M1.73815 0.377661l0.00447544 2.05295e-005 -1.18531 0.684331c0.234652,-0.408907 0.675565,-0.684352 1.18084,-0.684352z"/>
   </g>
   <polygon id="_483495768" class="fil2" points="1.06799,2.18662 1.10178,2.05375 0.877842,2.14655 0.972709,1.83468 1.17932,1.74893 1.42883,0.767927 2.06242,0.767927 1.88744,1.45497 2.13727,1.35127 2.05242,1.65983 1.80966,1.76043 1.70112,2.18662 2.60265,2.18662 2.47311,2.59497 0.96421,2.59497 1.06727,2.18662 "/>
   <polygon id="_237430728" class="fil0" points="1.05649,2.17182 1.08016,2.07872 0.854541,2.17221 0.960597,1.82368 1.1668,1.73809 1.41734,0.753125 2.08147,0.753125 1.9091,1.42996 2.15958,1.326 2.06478,1.67073 1.82218,1.77127 1.72017,2.17182 2.62287,2.17182 2.48395,2.60977 0.94522,2.60977 1.05573,2.17182 "/>
   <polygon id="_483495384" class="fil1" points="1.09702,2.22394 1.15633,1.99075 0.936536,2.08182 1.0033,1.8624 1.21087,1.77623 1.45786,0.80525 2.0144,0.80525 1.83288,1.51803 2.08104,1.41504 2.02127,1.63234 1.7781,1.7331 1.6531,2.22394 2.55166,2.22394 2.4458,2.55765 1.56813,2.55765 1.01213,2.55765 1.09634,2.22394 "/>
  </g>
 </g>
</svg>
