<svg xmlns="http://www.w3.org/2000/svg" viewBox="0 0 361.65 361.65" width="50.8681mm" height="50.9333mm">
 <defs>
  <style>
   .cls-1 {
   fill: #4693d3;
   }
  </style>
 </defs>
 <path style="fill:#FFF" d="M180.88,250.8c1.74-5.01,3.27-9.33,4.74-13.67,11.78-34.79,23.54-69.59,35.31-104.38,4.24-12.52,8.57-25,12.7-37.55,1.01-3.08,2.74-4.34,5.94-4.3,7.72,.11,15.44,.02,23.16,.04,4.39,.02,5.4,1.42,3.91,5.61-10.69,30.22-21.41,60.42-32.11,90.63-10.56,29.82-21.1,59.65-31.66,89.48-1.11,3.14-2.32,6.25-3.32,9.42-.99,3.13-3.16,4.62-6.27,4.65-8.34,.07-16.69,.07-25.03,0-3.03-.02-4.91-1.53-5.97-4.53-8.05-22.87-16.2-45.71-24.32-68.56-11.22-31.57-22.43-63.15-33.64-94.72-3.17-8.92-6.35-17.84-9.47-26.79-1.25-3.57-.12-5.17,3.68-5.19,7.72-.05,15.44,.12,23.16-.08,3.39-.09,5.19,1.27,6.23,4.37,4.76,14.21,9.61,28.39,14.43,42.57,9.55,28.08,19.1,56.15,28.65,84.23,2.85,8.37,5.68,16.75,8.53,25.12,.33,.97,.71,1.92,1.35,3.63Z"/>
 <path class="cls-1" d="M180.83,15c91.58,0,165.83,74.24,165.83,165.83s-74.24,165.83-165.83,165.83S15,272.41,15,180.83,89.24,15,180.83,15m0-15c-24.4,0-48.09,4.78-70.39,14.22-21.53,9.11-40.87,22.14-57.47,38.75-16.6,16.6-29.64,35.94-38.75,57.47C4.78,132.74,0,156.42,0,180.83s4.78,48.09,14.22,70.39c9.11,21.53,22.14,40.87,38.75,57.47,16.6,16.6,35.94,29.64,57.47,38.75,22.3,9.43,45.99,14.22,70.39,14.22s48.09-4.78,70.39-14.22c21.53-9.11,40.87-22.14,57.47-38.75,16.6-16.6,29.64-35.94,38.75-57.47,9.43-22.3,14.22-45.99,14.22-70.39s-4.78-48.09-14.22-70.39c-9.11-21.53-22.14-40.87-38.75-57.47-16.6-16.6-35.94-29.64-57.47-38.75C228.91,4.78,205.23,0,180.83,0h0Z"/>
</svg>
